2015043_C4_04_grf
version=1
nRows=34
nColumns=19
inDegrees=no
endheader
time	ground_force_1_vx	ground_force_1_vy	ground_force_1_vz	ground_force_1_px	ground_force_1_py	ground_force_1_pz	ground_force_1_mx	ground_force_1_my	ground_force_1_mz	ground_force_2_vx	ground_force_2_vy	ground_force_2_vz	ground_force_2_px	ground_force_2_py	ground_force_2_pz	ground_force_2_mx	ground_force_2_my	ground_force_2_mz
      1.16000000	    -46.58517987	    687.89047003	    -19.27551441	     -0.30323290	      0.00000000	      0.33904283	      0.00000000	      0.98155266	      0.00000000	      0.00000000	      0.00000000	      0.00000000	      0.00000000	      0.00000000	      0.00000000	      0.00000000	      0.00000000	      0.00000000
      1.16100000	    -46.28343135	    687.06399202	    -19.32581980	     -0.30300284	      0.00000000	      0.33912371	      0.00000000	      1.00205830	      0.00000000	      0.00000000	      0.00000000	      0.00000000	      0.00000000	      0.00000000	      0.00000000	      0.00000000	      0.00000000	      0.00000000
      1.16200000	    -45.98138854	    686.23530865	    -19.37515475	     -0.30277413	      0.00000000	      0.33920368	      0.00000000	      1.02221261	      0.00000000	      0.00000000	      0.00000000	      0.00000000	      0.00000000	      0.00000000	      0.00000000	      0.00000000	      0.00000000	      0.00000000
      1.16300000	    -45.67904025	    685.40495634	    -19.42313090	     -0.30254712	      0.00000000	      0.33928250	     -0.00000000	      1.04193756	      0.00000000	      0.00000000	      0.00000000	      0.00000000	      0.00000000	      0.00000000	      0.00000000	      0.00000000	      0.00000000	      0.00000000
      1.16400000	    -45.37650570	    684.57400799	    -19.46991310	     -0.30232149	      0.00000000	      0.33936041	      0.00000000	      1.06133046	      0.00000000	      0.00000000	      0.00000000	      0.00000000	      0.00000000	      0.00000000	      0.00000000	      0.00000000	      0.00000000	      0.00000000
      1.16500000	    -45.07379048	    683.74344707	    -19.51509062	     -0.30209758	      0.00000000	      0.33943716	      0.00000000	      1.08031900	      0.00000000	      0.00000000	      0.00000000	      0.00000000	      0.00000000	      0.00000000	      0.00000000	      0.00000000	      0.00000000	      0.00000000
      1.16600000	    -44.77097094	    682.91401863	    -19.55889910	     -0.30187508	      0.00000000	      0.33951295	     -0.00000000	      1.09899261	      0.00000000	      0.00000000	      0.00000000	      0.00000000	      0.00000000	      0.00000000	      0.00000000	      0.00000000	      0.00000000	      0.00000000
      1.16700000	    -44.46806386	    682.08700418	    -19.60090082	     -0.30165435	      0.00000000	      0.33958756	      0.00000000	      1.11728453	     -0.00000000	      0.00000000	      0.00000000	      0.00000000	      0.00000000	      0.00000000	      0.00000000	      0.00000000	      0.00000000	      0.00000000
      1.16800000	    -44.16511580	    681.26279116	    -19.64139193	     -0.30143508	      0.00000000	      0.33966118	     -0.00000000	      1.13528053	      0.00000000	      0.00000000	      0.00000000	      0.00000000	      0.00000000	      0.00000000	      0.00000000	      0.00000000	      0.00000000	      0.00000000
      1.16900000	    -43.86216030	    680.44307828	    -19.67992354	     -0.30121766	      0.00000000	      0.33973361	      0.00000000	      1.15292409	      0.00000000	      0.00000000	      0.00000000	      0.00000000	      0.00000000	      0.00000000	      0.00000000	      0.00000000	      0.00000000	      0.00000000
      1.17000000	    -43.55922714	    679.62783575	    -19.71683837	     -0.30100175	      0.00000000	      0.33980508	      0.00000000	      1.17029946	      0.00000000	      0.00000000	      0.00000000	      0.00000000	      0.00000000	      0.00000000	      0.00000000	      0.00000000	      0.00000000	      0.00000000
      1.17100000	    -43.25635172	    678.81900072	    -19.75168288	     -0.30078782	      0.00000000	      0.33987538	      0.00000000	      1.18736161	      0.00000000	      0.00000000	      0.00000000	      0.00000000	      0.00000000	      0.00000000	      0.00000000	      0.00000000	      0.00000000	      0.00000000
      1.17200000	    -42.95352846	    678.01606655	    -19.78483237	     -0.30057551	      0.00000000	      0.33994474	      0.00000000	      1.20418821	      0.00000000	      0.00000000	      0.00000000	      0.00000000	      0.00000000	      0.00000000	      0.00000000	      0.00000000	      0.00000000	      0.00000000
      1.17300000	    -42.65078157	    677.22147703	    -19.81583424	     -0.30036529	      0.00000000	      0.34001293	     -0.00000000	      1.22073901	      0.00000000	      0.00000000	      0.00000000	      0.00000000	      0.00000000	      0.00000000	      0.00000000	      0.00000000	      0.00000000	      0.00000000
      1.17400000	    -42.34809801	    676.43427849	    -19.84510198	     -0.30015678	      0.00000000	      0.34008016	     -0.00000000	      1.23708437	      0.00000000	      0.00000000	      0.00000000	      0.00000000	      0.00000000	      0.00000000	      0.00000000	      0.00000000	      0.00000000	      0.00000000
      1.17500000	    -42.04549640	    675.65721273	    -19.87219509	     -0.29995046	      0.00000000	      0.34014617	      0.00000000	      1.25318881	      0.00000000	      0.00000000	      0.00000000	      0.00000000	      0.00000000	      0.00000000	      0.00000000	      0.00000000	      0.00000000	      0.00000000
      1.17600000	    -41.74296558	    674.88908768	    -19.89755034	     -0.29974592	      0.00000000	      0.34021118	      0.00000000	      1.26911396	      0.00000000	      0.00000000	      0.00000000	      0.00000000	      0.00000000	      0.00000000	      0.00000000	      0.00000000	      0.00000000	      0.00000000
      1.17700000	    -41.44052602	    674.13297296	    -19.92074214	     -0.29954367	      0.00000000	      0.34027494	      0.00000000	      1.28483194	     -0.00000000	      0.00000000	      0.00000000	      0.00000000	      0.00000000	      0.00000000	      0.00000000	      0.00000000	      0.00000000	      0.00000000
      1.17800000	    -41.13816470	    673.38716984	    -19.94222589	     -0.29934329	      0.00000000	      0.34033766	      0.00000000	      1.30039773	      0.00000000	      0.00000000	      0.00000000	      0.00000000	      0.00000000	      0.00000000	      0.00000000	      0.00000000	      0.00000000	      0.00000000
      1.17900000	    -40.83590023	    672.65510559	    -19.96160857	     -0.29914527	      0.00000000	      0.34039909	     -0.00000000	      1.31578931	      0.00000000	      0.00000000	      0.00000000	      0.00000000	      0.00000000	      0.00000000	      0.00000000	      0.00000000	      0.00000000	      0.00000000
      1.18000000	    -40.53372517	    671.93460464	    -19.97935586	     -0.29894919	      0.00000000	      0.34045947	      0.00000000	      1.33105472	      0.00000000	      0.00000000	      0.00000000	      0.00000000	      0.00000000	      0.00000000	      0.00000000	      0.00000000	      0.00000000	      0.00000000
      1.18100000	    -40.23167118	    671.22930288	    -19.99513246	     -0.29875554	      0.00000000	      0.34051848	      0.00000000	      1.34617700	      0.00000000	      0.00000000	      0.00000000	      0.00000000	      0.00000000	      0.00000000	      0.00000000	      0.00000000	      0.00000000	      0.00000000
      1.18200000	    -39.92971405	    670.53681612	    -20.00939660	     -0.29856385	      0.00000000	      0.34057633	      0.00000000	      1.36119152	      0.00000000	      0.00000000	      0.00000000	      0.00000000	      0.00000000	      0.00000000	      0.00000000	      0.00000000	      0.00000000	      0.00000000
      1.18300000	    -39.62788358	    669.86101866	    -20.02186421	     -0.29837462	      0.00000000	      0.34063266	     -0.00000000	      1.37608047	      0.00000000	      0.00000000	      0.00000000	      0.00000000	      0.00000000	      0.00000000	      0.00000000	      0.00000000	      0.00000000	      0.00000000
      1.18400000	    -39.32614625	    669.19904947	    -20.03297023	     -0.29818736	      0.00000000	      0.34068773	      0.00000000	      1.39087464	      0.00000000	      0.00000000	      0.00000000	      0.00000000	      0.00000000	      0.00000000	      0.00000000	      0.00000000	      0.00000000	      0.00000000
      1.18500000	    -39.02450576	    668.55502129	    -20.04248183	     -0.29800260	      0.00000000	      0.34074117	     -0.00000000	      1.40555978	      0.00000000	      0.00000000	      0.00000000	      0.00000000	      0.00000000	      0.00000000	      0.00000000	      0.00000000	      0.00000000	      0.00000000
      1.18600000	    -38.72292861	    667.92571545	    -20.05081251	     -0.29781982	      0.00000000	      0.34079329	      0.00000000	      1.42016518	      0.00000000	      0.00000000	      0.00000000	      0.00000000	      0.00000000	      0.00000000	      0.00000000	      0.00000000	      0.00000000	      0.00000000
      1.18700000	    -38.42140362	    667.31536388	    -20.05780116	     -0.29763955	      0.00000000	      0.34084373	      0.00000000	      1.43468072	     -0.00000000	      0.00000000	      0.00000000	      0.00000000	      0.00000000	      0.00000000	      0.00000000	      0.00000000	      0.00000000	      0.00000000
      1.18800000	    -38.11989725	    666.72050953	    -20.06382681	     -0.29746128	      0.00000000	      0.34089283	     -0.00000000	      1.44912926	      0.00000000	      0.00000000	      0.00000000	      0.00000000	      0.00000000	      0.00000000	      0.00000000	      0.00000000	      0.00000000	      0.00000000
      1.18900000	    -37.81838156	    666.14556313	    -20.06880101	     -0.29728550	      0.00000000	      0.34094024	      0.00000000	      1.46350326	      0.00000000	      0.00000000	      0.00000000	      0.00000000	      0.00000000	      0.00000000	      0.00000000	      0.00000000	      0.00000000	      0.00000000
      1.19000000	    -37.51682863	    665.58682919	    -20.07305250	     -0.29711172	      0.00000000	      0.34098630	      0.00000000	      1.47782270	     -0.00000000	      0.00000000	      0.00000000	      0.00000000	      0.00000000	      0.00000000	      0.00000000	      0.00000000	      0.00000000	      0.00000000
      1.19100000	    -37.21519001	    665.04868865	    -20.07654496	     -0.29694043	      0.00000000	      0.34103069	      0.00000000	      1.49208377	      0.00000000	      0.00000000	      0.00000000	      0.00000000	      0.00000000	      0.00000000	      0.00000000	      0.00000000	      0.00000000	      0.00000000
      1.19200000	    -36.91343963	    664.52735662	    -20.07953636	     -0.29677113	      0.00000000	      0.34107376	      0.00000000	      1.50630233	      0.00000000	      0.00000000	      0.00000000	      0.00000000	      0.00000000	      0.00000000	      0.00000000	      0.00000000	      0.00000000	      0.00000000
      1.19300000	    -36.61150672	    664.02730346	    -20.08203696	     -0.29660431	      0.00000000	      0.34111519	      0.00000000	      1.52047419	      0.00000000	      0.00000000	      0.00000000	      0.00000000	      0.00000000	      0.00000000	      0.00000000	      0.00000000	      0.00000000	      0.00000000
